<svg width="990" height="177" viewBox="0 0 990 177" fill="none" xmlns="http://www.w3.org/2000/svg">
<path d="M155 0H273V70H155V0Z" fill="#D9D9D9"/>
<path d="M341.5 0H459.5V70H341.5V0Z" fill="#D9D9D9"/>
<path d="M155 0H273V70H155V0Z" fill="#D9D9D9"/>
<path d="M341.5 0H459.5V70H341.5V0Z" fill="#D9D9D9"/>
<path d="M508.5 0H626.5V70H508.5V0Z" fill="#D9D9D9"/>
<path d="M508.5 0H626.5V70H508.5V0Z" fill="#D9D9D9"/>
<path d="M692.5 0H810.5V70H692.5V0Z" fill="#D9D9D9"/>
<path d="M692.5 0H810.5V70H692.5V0Z" fill="#D9D9D9"/>
<path d="M872 0H990V70H872V0Z" fill="#D9D9D9"/>
<path d="M872 0H990V70H872V0Z" fill="#D9D9D9"/>
<path d="M0 106.5H118V176.5H0V106.5Z" fill="#D9D9D9"/>
<path d="M0 106.5H118V176.5H0V106.5Z" fill="#D9D9D9"/>
<path d="M155 106.5H273V176.5H155V106.5Z" fill="#D9D9D9"/>
<path d="M155 0H273V70H155V0Z" fill="#D9D9D9"/>
<path d="M341.5 0H459.5V70H341.5V0Z" fill="#D9D9D9"/>
<path d="M155 0H273V70H155V0Z" fill="#D9D9D9"/>
<path d="M341.5 0H459.5V70H341.5V0Z" fill="#D9D9D9"/>
<path d="M508.5 0H626.5V70H508.5V0Z" fill="#D9D9D9"/>
<path d="M508.5 0H626.5V70H508.5V0Z" fill="#D9D9D9"/>
<path d="M692.5 0H810.5V70H692.5V0Z" fill="#D9D9D9"/>
<path d="M692.5 0H810.5V70H692.5V0Z" fill="#D9D9D9"/>
<path d="M872 0H990V70H872V0Z" fill="#D9D9D9"/>
<path d="M872 0H990V70H872V0Z" fill="#D9D9D9"/>
<path d="M0 106.5H118V176.5H0V106.5Z" fill="#D9D9D9"/>
<path d="M0 106.5H118V176.5H0V106.5Z" fill="#D9D9D9"/>
<path d="M155 106.5H273V176.5H155V106.5Z" fill="#D9D9D9"/>
<path d="M341.5 106.5H459.5V176.5H341.5V106.5Z" fill="#D9D9D9"/>
<path d="M341.5 106.5H459.5V176.5H341.5V106.5Z" fill="#D9D9D9"/>
<path d="M508.5 106.5H626.5V176.5H508.5V106.5Z" fill="#D9D9D9"/>
<path d="M508.5 106.5H626.5V176.5H508.5V106.5Z" fill="#D9D9D9"/>
<path d="M692.5 106.5H810.5V176.5H692.5V106.5Z" fill="#D9D9D9"/>
<path d="M692.5 106.5H810.5V176.5H692.5V106.5Z" fill="#D9D9D9"/>
<path d="M872 106.5H990V176.5H872V106.5Z" fill="#D9D9D9"/>
<path d="M872 106.5H990V176.5H872V106.5Z" fill="#D9D9D9"/>
</svg>
